<?xml version="1.0" encoding="UTF-8"?>
<svg xmlns="http://www.w3.org/2000/svg" xmlns:xlink="http://www.w3.org/1999/xlink" viewBox="0 0 30 30" width="20px" height="20px">
<g id="surface52775914">
<path style=" stroke:none;fill-rule:nonzero;fill:rgb(100%,100%,100%);fill-opacity:1;" d="M 16.464844 2.5 L 7.5 2.5 C 6.125 2.5 5 3.625 5 5 L 5 25 C 5 26.375 6.125 27.5 7.5 27.5 L 22.5 27.5 C 23.875 27.5 25 26.375 25 25 L 25 11.035156 C 25 10.371094 24.734375 9.734375 24.265625 9.265625 L 18.234375 3.234375 C 17.765625 2.765625 17.128906 2.5 16.464844 2.5 Z M 18.75 22.5 L 11.25 22.5 C 10.558594 22.5 10 21.941406 10 21.25 C 10 20.558594 10.558594 20 11.25 20 L 18.75 20 C 19.441406 20 20 20.558594 20 21.25 C 20 21.941406 19.441406 22.5 18.75 22.5 Z M 18.75 17.5 L 11.25 17.5 C 10.558594 17.5 10 16.941406 10 16.25 C 10 15.558594 10.558594 15 11.25 15 L 18.75 15 C 19.441406 15 20 15.558594 20 16.25 C 20 16.941406 19.441406 17.5 18.75 17.5 Z M 16.25 11.25 L 16.25 4.375 L 23.125 11.25 Z M 16.25 11.25 "/>
</g>
</svg>
